<?xml version="1.0" encoding="UTF-8" standalone="no"?>
<!-- Created with Inkscape (http://www.inkscape.org/) -->

<svg
   version="1.1"
   id="svg1"
   width="375.49103"
   height="90"
   viewBox="0 0 375.49103 90"
   sodipodi:docname="logo.svg"
   inkscape:version="1.3.2 (091e20e, 2023-11-25, custom)"
   inkscape:export-filename="logo.png"
   inkscape:export-xdpi="96"
   inkscape:export-ydpi="96"
   xmlns:inkscape="http://www.inkscape.org/namespaces/inkscape"
   xmlns:sodipodi="http://sodipodi.sourceforge.net/DTD/sodipodi-0.dtd"
   xmlns="http://www.w3.org/2000/svg"
   xmlns:svg="http://www.w3.org/2000/svg">
  <defs
     id="defs1">
    <rect
       x="281.8194"
       y="227.02119"
       width="73.064293"
       height="78.283165"
       id="rect4" />
    <rect
       x="100.25326"
       y="120.54993"
       width="437.73502"
       height="146.85538"
       id="rect1" />
    <rect
       x="100.25326"
       y="120.54993"
       width="437.73502"
       height="146.85538"
       id="rect1-8" />
  </defs>
  <sodipodi:namedview
     id="namedview1"
     pagecolor="#505050"
     bordercolor="#eeeeee"
     borderopacity="1"
     inkscape:showpageshadow="0"
     inkscape:pageopacity="0"
     inkscape:pagecheckerboard="0"
     inkscape:deskcolor="#505050"
     showgrid="true"
     inkscape:zoom="1.6258824"
     inkscape:cx="212.80753"
     inkscape:cy="-18.143994"
     inkscape:window-width="1366"
     inkscape:window-height="705"
     inkscape:window-x="-8"
     inkscape:window-y="-8"
     inkscape:window-maximized="1"
     inkscape:current-layer="g1">
    <inkscape:grid
       id="grid8"
       units="px"
       originx="-3.2374469"
       originy="-4"
       spacingx="1"
       spacingy="1"
       empcolor="#0099e5"
       empopacity="0.30196078"
       color="#0099e5"
       opacity="0.14901961"
       empspacing="5"
       dotted="false"
       gridanglex="30"
       gridanglez="30"
       visible="true" />
  </sodipodi:namedview>
  <g
     inkscape:groupmode="layer"
     inkscape:label="Image"
     id="g1"
     transform="translate(-3.2374469,-4)">
    <path
       style="fill:#cb0101;stroke-width:4.04949"
       d="m 5.3836449,86.913305 c 0,-6.965174 0.09193,-7.192627 5.3571521,-13.270476 L 16.09796,67.459016 V 48.829041 30.1991 L 9.6919759,25.40312 3.2860469,20.60714 3.2617469,12.30357 3.2374469,4 h 7.4999861 7.50002 v 3.21428 3.21429 h 6.42857 6.42857 V 7.21428 4 h 9.107152 9.107141 v 3.21428 3.21429 h 6.428571 6.428569 V 7.21428 4 h 7.499994 7.499965 l -0.0429,8.30357 -0.0429,8.30357 -6.38546,4.764 -6.385496,4.76402 v 18.86141 18.86136 l 5.357157,6.010585 c 5.278509,5.922385 5.357109,6.114202 5.357109,13.07103 V 94 H 40.201992 5.3805589 Z"
       id="path1"
       inkscape:export-filename="logo.png"
       inkscape:export-xdpi="96"
       inkscape:export-ydpi="96" />
    <text
       xml:space="preserve"
       style="font-style:normal;font-variant:normal;font-weight:bold;font-stretch:normal;font-size:53.3333px;font-family:'Hanken Grotesk';-inkscape-font-specification:'Hanken Grotesk Bold';fill:#000000;stroke:none;stroke-width:3.112"
       x="118.70478"
       y="219.57307"
       id="text2"><tspan
         sodipodi:role="line"
         id="tspan2"
         x="118.70478"
         y="219.57307" /></text>
    <text
       xml:space="preserve"
       style="font-style:normal;font-variant:normal;font-weight:normal;font-stretch:normal;font-size:23.6931px;font-family:'Hanken Grotesk';-inkscape-font-specification:'Hanken Grotesk';letter-spacing:0px;fill:#000000;stroke:none;stroke-width:3.0722"
       x="83.592621"
       y="89.289001"
       id="text3"><tspan
         sodipodi:role="line"
         id="tspan3"
         x="83.592621"
         y="89.289001"
         style="font-style:normal;font-variant:normal;font-weight:normal;font-stretch:normal;font-size:23.6931px;font-family:'MS UI Gothic';-inkscape-font-specification:'MS UI Gothic';letter-spacing:0px;stroke-width:3.0722"
         rotate="0 0 0 0 0 0 0 0 0 0 0 0 0 0 0 0 0 0 0 0 0 0">ENGENHEIRO ESTRUTURAL</tspan></text>
    <text
       xml:space="preserve"
       id="text4"
       style="font-style:normal;font-variant:normal;font-weight:normal;font-stretch:normal;font-size:37.3333px;font-family:Georgia;-inkscape-font-specification:Georgia;white-space:pre;shape-inside:url(#rect4);display:inline;fill:#000000;stroke:none;stroke-width:3.112" />
    <g
       id="g8"
       transform="translate(-27.834015,140)">
      <path
         style="font-size:74.6667px;font-family:Georgia;-inkscape-font-specification:Georgia;white-space:pre;stroke-width:3.112"
         d="m 402.09456,-102.84369 q 0,6.598956 -2.47917,11.447916 -2.47916,4.84896 -6.45312,7.94792 -4.01042,3.09896 -9.00522,4.63021 -4.99479,1.53125 -10.31771,1.53125 h -21.43751 v -2.58854 q 1.05729,0 2.73438,-0.18229 1.71354,-0.21875 2.26041,-0.47396 1.09375,-0.47396 1.56771,-1.38542 0.51042,-0.94791 0.51042,-2.26041 v -37.333356 q 0,-1.23958 -0.4375,-2.22396 -0.40104,-0.98437 -1.64063,-1.5677 -1.1302,-0.54688 -2.44271,-0.80209 -1.3125,-0.25521 -2.26041,-0.32812 v -2.58855 h 22.60417 q 4.66667,0 9.18751,1.45834 4.52083,1.42187 7.875,3.86458 4.5573,3.2448 7.14584,8.4948 2.58854,5.25 2.58854,12.35938 z m -8.93229,-0.0365 q 0,-5.21354 -1.38542,-9.40625 -1.38542,-4.22917 -4.04688,-7.36459 -2.51562,-2.98958 -6.19792,-4.70313 -3.64583,-1.71354 -8.13021,-1.71354 -1.49479,0 -3.39063,0.0729 -1.85937,0.0365 -2.77083,0.0729 v 39.776056 q 0,3.31771 1.93229,4.59376 1.93229,1.27604 5.94271,1.27604 4.63021,0 8.09376,-1.64063 3.46354,-1.64062 5.61458,-4.55729 2.26042,-3.0625 3.28125,-7.07292 1.0573,-4.04688 1.0573,-9.333336 z"
         id="path8" />
      <path
         style="font-size:74.6667px;font-family:Georgia;-inkscape-font-specification:Georgia;white-space:pre;stroke-width:3.112"
         d="m 353.01119,-92.671814 -1.09375,15.38542 h -40.43231 v -2.58854 q 0.875,-0.0729 2.51563,-0.25521 1.67708,-0.18229 2.33333,-0.47396 1.09375,-0.47395 1.56771,-1.38541 0.51042,-0.91146 0.51042,-2.33334 v -37.041676 q 0,-1.23959 -0.4375,-2.1875 -0.40104,-0.94792 -1.64063,-1.53125 -0.83854,-0.4375 -2.36979,-0.83855 -1.49479,-0.4375 -2.47917,-0.51041 v -2.58855 h 21.83856 v 2.58855 q -1.02084,0.0365 -2.66146,0.36458 -1.60417,0.32813 -2.33334,0.58333 -1.23958,0.4375 -1.71354,1.4948 -0.4375,1.05729 -0.4375,2.26041 v 34.744806 q 0,2.40625 0.21875,3.75521 0.25521,1.3125 1.13021,2.04167 0.83854,0.65625 2.47917,0.875 1.67708,0.18229 4.66666,0.18229 1.34896,0 2.8073,-0.0729 1.45833,-0.0729 2.77083,-0.29167 1.27604,-0.21875 2.33334,-0.58333 1.09375,-0.40105 1.60416,-0.98438 1.4948,-1.67708 3.46355,-5.06771 2.00521,-3.42709 2.77083,-5.54167 z"
         id="path7" />
      <path
         style="font-size:74.6667px;font-family:Georgia;-inkscape-font-specification:Georgia;white-space:pre;stroke-width:3.112"
         d="m 307.70387,-122.89578 q 3.42709,3.57292 5.35938,8.64063 1.93229,5.03125 1.93229,11.15625 0,6.161456 -1.96875,11.192706 -1.96875,5.03126 -5.46875,8.56772 -3.39063,3.5 -7.875,5.39583 -4.48438,1.89584 -9.55209,1.89584 -5.39584,0 -9.98959,-2.00521 -4.55729,-2.04167 -7.83855,-5.65105 -3.28125,-3.53646 -5.17708,-8.56771 -1.85938,-5.06771 -1.85938,-10.828126 0,-6.30729 1.96875,-11.22917 1.96875,-4.95834 5.4323,-8.56771 3.42708,-3.57292 7.94792,-5.46876 4.55729,-1.89583 9.51563,-1.89583 5.14062,0 9.69792,1.93229 4.55729,1.9323 7.875,5.4323 z m -5.43229,36.677096 q 2.04167,-3.31771 2.95312,-7.51042 0.94792,-4.19271 0.94792,-9.369796 0,-5.32292 -1.05729,-9.77084 -1.02083,-4.44792 -3.02604,-7.58333 -2.00521,-3.09896 -5.03126,-4.81251 -3.02604,-1.75 -6.92708,-1.75 -4.375,0 -7.43751,2.00521 -3.0625,2.00521 -4.99479,5.35938 -1.82292,3.20833 -2.73438,7.51042 -0.875,4.30209 -0.875,9.04167 0,5.249996 0.94792,9.479166 0.94792,4.22917 2.98959,7.51042 1.96875,3.20834 4.95833,5.03126 2.98959,1.78645 7.14584,1.78645 3.90104,0 7.03646,-1.82291 3.13542,-1.82292 5.10417,-5.10417 z"
         id="path6" />
      <path
         style="font-size:74.6667px;font-family:Georgia;-inkscape-font-specification:Georgia;white-space:pre;stroke-width:3.112"
         d="m 269.72988,-126.43224 q -1.02083,0.0365 -3.13541,0.58333 -2.11459,0.54688 -3.02605,1.13021 -1.3125,0.91146 -1.78646,3.5 -0.4375,2.58854 -0.4375,6.5625 v 37.880226 h -3.17187 l -31.35418,-42.328136 v 26.687506 q 0,4.48438 0.54687,6.89063 0.58333,2.40625 1.75,3.42708 0.83854,0.80209 3.46354,1.49479 2.62501,0.69271 3.46355,0.72917 v 2.58854 h -21.21876 v -2.58854 q 0.98437,-0.0729 3.31771,-0.69271 2.33333,-0.65625 2.91667,-1.16667 1.27604,-1.02083 1.75,-3.09895 0.47396,-2.11459 0.47396,-7.1823 v -25.484386 q 0,-1.67708 -0.58334,-3.35417 -0.58333,-1.67708 -1.56771,-2.58854 -1.3125,-1.20312 -3.57292,-2.04167 -2.22396,-0.875 -3.60937,-0.94791 v -2.58855 h 14.76563 l 29.09376,39.447936 v -24.609386 q 0,-4.52083 -0.58333,-6.92708 -0.58333,-2.44271 -1.67708,-3.2448 -1.02084,-0.69271 -3.35417,-1.34896 -2.29688,-0.65625 -3.5,-0.72916 v -2.58855 h 21.03646 z"
         id="path5" />
      <path
         style="font-size:74.6667px;font-family:Georgia;-inkscape-font-specification:Georgia;white-space:pre;stroke-width:3.112"
         d="m 214.64132,-77.286394 h -13.92709 q -4.63021,-7.25521 -8.38542,-12.54167 -3.71875,-5.28646 -8.09376,-10.901046 h -5.28646 v 16.406256 q 0,1.27604 0.40104,2.26042 0.40105,0.94792 1.71355,1.45833 0.65625,0.25521 2.29687,0.47396 1.64063,0.21875 2.77084,0.25521 v 2.58854 h -21.87501 v -2.58854 q 0.875,-0.0729 2.51562,-0.25521 1.67709,-0.18229 2.33334,-0.47396 1.09375,-0.47395 1.56771,-1.38541 0.51041,-0.91146 0.51041,-2.33334 v -37.406266 q 0,-1.27604 -0.36458,-2.26041 -0.36458,-0.98438 -1.71354,-1.4948 -0.91146,-0.32812 -2.36979,-0.58333 -1.45834,-0.29167 -2.47917,-0.36458 v -2.58855 h 23.88022 q 3.28125,0 6.16146,0.69271 2.88021,0.65625 5.21354,2.15105 2.26042,1.45833 3.60938,3.82812 1.34896,2.33334 1.34896,5.65105 0,2.98958 -0.91146,5.28646 -0.91146,2.29687 -2.69792,3.97396 -1.64062,1.56771 -3.9375,2.73437 -2.29688,1.13021 -5.06771,1.9323 3.82813,5.067706 6.34375,8.531246 2.55209,3.46354 6.23438,8.42188 1.60417,2.1875 2.88021,3.24479 1.3125,1.02084 2.58854,1.67709 0.94792,0.47396 2.3698,0.72916 1.42187,0.25521 2.36979,0.29167 z m -19.17709,-38.572926 q 0,-4.70313 -2.69792,-7.43751 -2.69792,-2.77083 -7.6198,-2.77083 h -6.19792 v 22.20314 h 4.77605 q 5.03125,0 8.38542,-3.20834 3.35417,-3.24479 3.35417,-8.78646 z"
         id="path4" />
      <path
         style="font-size:74.6667px;font-family:Georgia;-inkscape-font-specification:Georgia;white-space:pre;stroke-width:3.112"
         d="m 164.3965,-77.286394 h -21.54688 v -2.58854 q 2.84375,-0.18229 4.70312,-0.72917 1.89584,-0.54687 1.89584,-1.34896 0,-0.32812 -0.0729,-0.80208 -0.0729,-0.47396 -0.21875,-0.83854 l -4.30208,-11.59376 h -18.1198 q -1.02084,2.55209 -1.67709,4.44792 -0.61979,1.89584 -1.13021,3.5 -0.47396,1.56771 -0.65625,2.55209 -0.18229,0.98437 -0.18229,1.60417 0,1.45833 2.29688,2.26041 2.29687,0.80209 5.17708,0.94792 v 2.58854 h -19.46878 v -2.58854 q 0.94792,-0.0729 2.3698,-0.40104 1.42187,-0.36458 2.33333,-0.94792 1.45834,-0.98437 2.26042,-2.04167 0.80208,-1.09375 1.56771,-2.98958 3.90104,-9.73438 8.60417,-21.875006 4.70313,-12.14063 8.38542,-21.6198 h 2.91667 l 17.2448,44.625016 q 0.54687,1.42187 1.23958,2.29687 0.69271,0.875 1.93229,1.71355 0.83855,0.51041 2.1875,0.875 1.34896,0.32812 2.26042,0.36458 z m -20.85417,-21.14584 -7.83855,-20.052086 -7.69271,20.052086 z"
         id="text1-2" />
    </g>
  </g>
</svg>
